HIERARCHY
ROOT Hips
{
	OFFSET -29.380051 91.728088 330.575287
	CHANNELS 6 Xposition Yposition Zposition Zrotation Yrotation Xrotation 
	JOINT LeftUpLeg
	{
		OFFSET 0.103456 1.857840 10.548504
		CHANNELS 3 Zrotation Yrotation Xrotation
		JOINT LeftLeg
		{
			OFFSET 43.500004 -0.000034 -0.000008
			CHANNELS 3 Zrotation Yrotation Xrotation
			JOINT LeftFoot
			{
				OFFSET 42.372196 0.000008 -0.000002
				CHANNELS 3 Zrotation Yrotation Xrotation
				JOINT LeftToe
				{
					OFFSET 17.300014 0.000003 0.000004
					CHANNELS 3 Zrotation Yrotation Xrotation
					End Site
					{
						OFFSET 0.000000 0.000000 0.000000
					}
				}
			}
		}
	}
	JOINT RightUpLeg
	{
		OFFSET 0.103459 1.857840 -10.548506
		CHANNELS 3 Zrotation Yrotation Xrotation
		JOINT RightLeg
		{
			OFFSET 43.500042 -0.000034 0.000008
			CHANNELS 3 Zrotation Yrotation Xrotation
			JOINT RightFoot
			{
				OFFSET 42.372265 -0.000015 0.000013
				CHANNELS 3 Zrotation Yrotation Xrotation
				JOINT RightToe
				{
					OFFSET 17.299982 -0.000008 0.000011
					CHANNELS 3 Zrotation Yrotation Xrotation
					End Site
					{
						OFFSET 0.000000 0.000000 0.000000
					}
				}
			}
		}
	}
	JOINT Spine
	{
		OFFSET 6.901965 -2.603744 0.000002
		CHANNELS 3 Zrotation Yrotation Xrotation
		JOINT Spine1
		{
			OFFSET 12.588102 0.000003 0.000000
			CHANNELS 3 Zrotation Yrotation Xrotation
			JOINT Spine2
			{
				OFFSET 12.343206 -0.000003 0.000000
				CHANNELS 3 Zrotation Yrotation Xrotation
				JOINT Neck
				{
					OFFSET 25.832899 0.000011 -0.000003
					CHANNELS 3 Zrotation Yrotation Xrotation
					JOINT Head
					{
						OFFSET 11.766600 0.000020 0.000002
						CHANNELS 3 Zrotation Yrotation Xrotation
						End Site
						{
							OFFSET 0.000000 0.000000 0.000000
						}
					}
				}
				JOINT LeftShoulder
				{
					OFFSET 19.745911 -1.480356 6.000103
					CHANNELS 3 Zrotation Yrotation Xrotation
					JOINT LeftArm
					{
						OFFSET 11.284127 -0.000002 -0.000032
						CHANNELS 3 Zrotation Yrotation Xrotation
						JOINT LeftForeArm
						{
							OFFSET 33.000050 0.000004 0.000036
							CHANNELS 3 Zrotation Yrotation Xrotation
							JOINT LeftHand
							{
								OFFSET 25.200010 -0.000005 -0.000001
								CHANNELS 3 Zrotation Yrotation Xrotation
								End Site
								{
									OFFSET 0.000000 0.000000 0.000000
								}
							}
						}
					}
				}
				JOINT RightShoulder
				{
					OFFSET 19.746094 -1.480362 -6.000076
					CHANNELS 3 Zrotation Yrotation Xrotation
					JOINT RightArm
					{
						OFFSET 11.284138 -0.000014 -0.000009
						CHANNELS 3 Zrotation Yrotation Xrotation
						JOINT RightForeArm
						{
							OFFSET 33.000099 0.000006 0.000015
							CHANNELS 3 Zrotation Yrotation Xrotation
							JOINT RightHand
							{
								OFFSET 25.199768 0.000152 0.000415
								CHANNELS 3 Zrotation Yrotation Xrotation
								End Site
								{
									OFFSET 0.000000 0.000000 0.000000
								}
							}
						}
					}
				}
			}
		}
	}
}
MOTION
Frames: 5
Frame Time: 0.033333
-29.380051 91.728088 330.575287 89.230479 7.627257 88.380735 -175.684965 -4.201198 168.996010 -18.179513 -2.103385 -1.982795 86.950603 1.112096 -1.796929 21.454553 0.003095 -0.000000 -177.231128 0.851707 -179.361492 -18.973291 3.752139 13.689292 85.325476 -8.813669 4.399219 21.454557 -0.003099 -0.000014 7.229560 0.121354 0.198130 4.431078 0.226076 0.366603 4.112981 0.228429 0.365195 -8.150672 -3.564643 -2.565867 0.536470 4.819647 -4.657260 -84.053927 -82.551312 -98.385924 -9.602681 6.696856 -19.929215 -15.758151 -15.636859 1.078945 14.336430 4.958289 -8.445467 45.826796 85.303052 -132.648844 -2.121791 -14.686990 31.299618 -21.877429 20.451637 -1.469274 16.020700 -2.668963 -5.630567 
-29.380390 91.728012 330.579895 89.230466 7.627259 88.384827 -175.681714 -4.201202 168.996010 -18.176206 -2.103389 -1.980126 86.952195 1.110104 -1.796927 21.454558 0.003083 0.000001 -177.227781 0.851693 -179.361492 -18.973296 3.752144 13.689304 85.327197 -8.813650 4.401159 21.454560 -0.003109 -0.000016 7.229551 0.121357 0.198126 4.431087 0.226082 0.366624 4.112986 0.228440 0.365182 -8.165337 -3.568426 -2.570464 0.553001 4.829400 -4.664479 -84.070333 -82.546176 -98.369949 -9.614351 6.698236 -19.931832 -15.758155 -15.636861 1.078950 14.336427 4.965826 -8.445467 45.737160 85.310565 -132.737350 -2.138994 -14.684022 31.299718 -21.882854 20.455233 -1.469271 16.020700 -2.680992 -5.636621 
-29.380760 91.727402 330.605011 89.230472 7.619564 88.403159 -175.665854 -4.201193 168.996010 -18.159069 -2.103387 -1.968713 86.961846 1.101313 -1.802462 21.454553 0.003088 -0.000001 -177.214107 0.851704 -179.361492 -18.973287 3.752140 13.689294 85.337674 -8.813662 4.414011 21.454558 -0.003111 -0.000017 7.229548 0.121359 0.198130 4.431079 0.230440 0.366608 4.112991 0.232777 0.365180 -8.230001 -3.573848 -2.605043 0.592620 4.862455 -4.705813 -84.122399 -82.541122 -98.318087 -9.655886 6.707100 -19.941410 -15.764237 -15.636859 1.078940 14.343679 5.007905 -8.445468 45.410185 85.337715 -133.060650 -2.215505 -14.668470 31.289981 -21.912000 20.472618 -1.469274 16.021542 -2.731443 -5.664082 
-29.379120 91.725906 330.628815 89.230472 7.611344 88.414531 -175.657972 -4.201202 168.995997 -18.156733 -2.103393 -1.960314 86.978361 1.094083 -1.810847 21.454550 0.003095 -0.000000 -177.205611 0.851701 -179.361492 -18.973289 3.752150 13.689299 85.347278 -8.813645 4.428698 21.454560 -0.003118 -0.000018 7.229555 0.121357 0.198133 4.431076 0.235706 0.366610 4.112982 0.238049 0.365192 -8.254319 -3.546708 -2.641797 0.552292 4.870677 -4.736189 -84.107195 -82.577670 -98.329794 -9.662609 6.714040 -19.956959 -15.770922 -15.636861 1.078940 14.367042 5.043640 -8.437846 45.591513 85.327559 -132.881166 -2.221649 -14.647260 31.258634 -21.931790 20.472252 -1.469268 16.046030 -2.734480 -5.646505 
-29.375469 91.724350 330.652313 89.223929 7.601299 88.415255 -175.655731 -4.201194 168.996010 -18.164572 -2.103387 -1.960504 87.000265 1.092692 -1.820296 21.454550 0.003083 -0.000002 -177.197906 0.851702 -179.361492 -18.970161 3.752142 13.689291 85.347291 -8.807885 4.447578 21.454558 -0.003119 -0.000019 7.229561 0.125432 0.198138 4.431078 0.243743 0.372310 4.112987 0.246130 0.370844 -8.259907 -3.504810 -2.661795 0.483497 4.880629 -4.746722 -84.097093 -82.623658 -98.335395 -9.655627 6.711409 -19.965097 -15.775370 -15.632636 1.078951 14.372540 5.085865 -8.411079 46.117874 85.290396 -132.360569 -2.172870 -14.620191 31.220675 -21.944641 20.456147 -1.469282 16.071360 -2.722147 -5.631958 
